<svg width="31" height="32" viewBox="0 0 31 32" fill="none" xmlns="http://www.w3.org/2000/svg">
<path d="M29.7418 15.1256C29.7798 14.8147 29.7519 14.4993 29.6598 14.2C29.5677 13.9007 29.4135 13.6241 29.2073 13.3884C28.9986 13.1509 28.7417 12.9605 28.4537 12.8299C28.1656 12.6994 27.8531 12.6316 27.5369 12.6312H3.61782C3.30161 12.6316 2.9891 12.6994 2.7011 12.8299C2.41309 12.9605 2.15619 13.1509 1.94749 13.3884C1.74127 13.6241 1.58707 13.9007 1.49497 14.2C1.40287 14.4993 1.37493 14.8147 1.41299 15.1256L3.08332 28.4882C3.14896 29.0314 3.41228 29.5315 3.82305 29.8929C4.23381 30.2544 4.76327 30.452 5.31042 30.4481H25.8889C26.436 30.452 26.9655 30.2544 27.3762 29.8929C27.787 29.5315 28.0503 29.0314 28.116 28.4882L29.7418 15.1256Z" stroke="white" stroke-width="2.2271" stroke-linecap="round" stroke-linejoin="round"/>
<path d="M5.55542 12.6312V11.5177C5.55542 8.85968 6.6113 6.31055 8.49079 4.43106C10.3703 2.55158 12.9194 1.4957 15.5774 1.4957C18.2354 1.4957 20.7845 2.55158 22.664 4.43106C24.5435 6.31055 25.5994 8.85968 25.5994 11.5177V12.6312" stroke="white" stroke-width="2.2271" stroke-linecap="round" stroke-linejoin="round"/>
<path d="M11.1233 19.3126V23.7668" stroke="white" stroke-width="2.2271" stroke-linecap="round" stroke-linejoin="round"/>
<path d="M20.032 19.3126V23.7668" stroke="white" stroke-width="2.2271" stroke-linecap="round" stroke-linejoin="round"/>
</svg>
