<svg width="32" height="32" viewBox="0 0 32 32" fill="none" xmlns="http://www.w3.org/2000/svg">
<path d="M15.5897 18.0134C18.6647 18.0134 21.1575 15.5206 21.1575 12.4456C21.1575 9.37064 18.6647 6.87787 15.5897 6.87787C12.5147 6.87787 10.022 9.37064 10.022 12.4456C10.022 15.5206 12.5147 18.0134 15.5897 18.0134Z" stroke="white" stroke-width="2.2271" stroke-linecap="round" stroke-linejoin="round"/>
<path d="M6.07983 26.6991C7.07366 25.0678 8.47043 23.7196 10.1359 22.784C11.8013 21.8485 13.6794 21.3571 15.5896 21.3571C17.4998 21.3571 19.3779 21.8485 21.0433 22.784C22.7087 23.7196 24.1055 25.0678 25.0993 26.6991" stroke="white" stroke-width="2.2271" stroke-linecap="round" stroke-linejoin="round"/>
<path d="M15.5897 30.2625C23.5847 30.2625 30.0659 23.7812 30.0659 15.7863C30.0659 7.7913 23.5847 1.31009 15.5897 1.31009C7.59473 1.31009 1.11353 7.7913 1.11353 15.7863C1.11353 23.7812 7.59473 30.2625 15.5897 30.2625Z" stroke="white" stroke-width="2.2271" stroke-linecap="round" stroke-linejoin="round"/>
</svg>
