<svg width="914" height="914" viewBox="0 0 914 914" fill="none" xmlns="http://www.w3.org/2000/svg">
<g style="mix-blend-mode:multiply">
<path d="M542.843 124.853H157.446C148.41 124.853 141.085 132.177 141.085 141.213V357.264C141.085 366.3 148.41 373.625 157.446 373.625H542.843C551.879 373.625 559.203 366.3 559.203 357.264V141.213C559.203 132.177 551.879 124.853 542.843 124.853Z" stroke="#223451" stroke-linecap="round" stroke-linejoin="round"/>
<path d="M559.203 141.213V147.684H141.085V141.213C141.085 136.865 142.806 132.695 145.871 129.612C148.937 126.529 153.098 124.785 157.446 124.761H542.916C545.067 124.768 547.195 125.2 549.178 126.031C551.162 126.863 552.962 128.077 554.475 129.606C555.988 131.134 557.185 132.946 557.996 134.938C558.808 136.93 559.218 139.062 559.203 141.213V141.213Z" stroke="#223451" stroke-linecap="round" stroke-linejoin="round"/>
<path d="M188.046 136.259C188.05 137.088 187.807 137.899 187.35 138.59C186.892 139.281 186.239 139.82 185.475 140.14C184.71 140.459 183.868 140.545 183.055 140.385C182.242 140.226 181.494 139.829 180.907 139.244C180.319 138.659 179.919 137.913 179.756 137.101C179.593 136.288 179.675 135.446 179.991 134.68C180.307 133.914 180.844 133.259 181.533 132.798C182.221 132.337 183.031 132.091 183.86 132.091C184.967 132.091 186.029 132.53 186.814 133.311C187.598 134.092 188.041 135.152 188.046 136.259Z" fill="#223451"/>
<path d="M209.891 136.259C209.895 137.088 209.652 137.899 209.194 138.59C208.737 139.281 208.084 139.82 207.32 140.14C206.555 140.459 205.713 140.545 204.899 140.385C204.086 140.226 203.339 139.829 202.751 139.244C202.164 138.659 201.764 137.913 201.601 137.101C201.438 136.288 201.519 135.446 201.836 134.68C202.152 133.914 202.689 133.259 203.377 132.798C204.066 132.337 204.876 132.091 205.705 132.091C206.812 132.091 207.874 132.53 208.658 133.311C209.443 134.092 209.886 135.152 209.891 136.259Z" fill="#223451"/>
<path d="M227.549 140.445C229.861 140.445 231.736 138.571 231.736 136.259C231.736 133.947 229.861 132.073 227.549 132.073C225.237 132.073 223.363 133.947 223.363 136.259C223.363 138.571 225.237 140.445 227.549 140.445Z" fill="#223451"/>
<path d="M290.835 165.8H172.618C168.893 165.8 165.873 168.82 165.873 172.545V229.414C165.873 233.14 168.893 236.16 172.618 236.16H290.835C294.56 236.16 297.58 233.14 297.58 229.414V172.545C297.58 168.82 294.56 165.8 290.835 165.8Z" stroke="#223451" stroke-linecap="round" stroke-linejoin="round"/>
<path d="M173.623 227.312H287.818" stroke="#223451" stroke-linecap="round" stroke-linejoin="round"/>
<path d="M195.358 213.876H182.105V227.129H195.358V213.876Z" stroke="#223451" stroke-miterlimit="10"/>
<path d="M214.753 196.455H201.5V227.312H214.753V196.455Z" stroke="#223451" stroke-miterlimit="10"/>
<path d="M236.598 201.756H223.345V227.623H236.598V201.756Z" stroke="#223451" stroke-miterlimit="10"/>
<path d="M259.558 176H246.305V226.727H259.558V176Z" stroke="#223451" stroke-miterlimit="10"/>
<path d="M282.499 176.402H269.246V227.129H282.499V176.402Z" stroke="#223451" stroke-miterlimit="10"/>
<path d="M460.875 239.797C481.339 239.797 497.929 223.208 497.929 202.744C497.929 182.279 481.339 165.69 460.875 165.69C440.411 165.69 423.822 182.279 423.822 202.744C423.822 223.208 440.411 239.797 460.875 239.797Z" stroke="#223451" stroke-miterlimit="10"/>
<path d="M463.91 225.85V229.652H457.695V225.85C455.142 225.232 452.884 223.745 451.31 221.643C449.735 219.541 448.942 216.956 449.066 214.333V212.615L456.104 211.847V213.675C456.104 217.203 457.932 219.342 460.802 219.342C461.425 219.394 462.052 219.31 462.639 219.096C463.227 218.883 463.761 218.545 464.206 218.106C464.65 217.666 464.995 217.136 465.215 216.551C465.435 215.966 465.526 215.34 465.482 214.717C465.482 211.335 462.319 208.429 458.59 205.339C454.167 201.683 449.761 197.333 449.761 191.191C449.761 185.049 452.649 180.899 457.695 179.656V175.835H463.91V179.619C469.01 180.808 471.971 185.103 471.971 191.227V192.47L464.933 193.22V191.94C464.933 188.284 463.489 186.273 460.93 186.273C458.371 186.273 456.927 187.864 456.927 190.898C456.927 194.28 460.181 197.113 463.837 200.276C468.187 203.932 472.666 208.282 472.666 214.425C472.773 217.052 471.956 219.635 470.356 221.722C468.756 223.81 466.475 225.27 463.91 225.85Z" fill="#223451"/>
<path d="M162.802 272.098H173.624" stroke="#223451" stroke-linecap="round" stroke-linejoin="round"/>
<path d="M162.802 293.01H173.624" stroke="#223451" stroke-linecap="round" stroke-linejoin="round"/>
<path d="M162.802 313.941H173.624" stroke="#223451" stroke-linecap="round" stroke-linejoin="round"/>
<path d="M162.802 334.853H173.624" stroke="#223451" stroke-linecap="round" stroke-linejoin="round"/>
<path d="M197.479 350.647V342.238" stroke="#223451" stroke-linecap="round" stroke-linejoin="round"/>
<path d="M214.625 350.647V342.238" stroke="#223451" stroke-linecap="round" stroke-linejoin="round"/>
<path d="M231.772 350.647V342.238" stroke="#223451" stroke-linecap="round" stroke-linejoin="round"/>
<path d="M248.937 350.647V342.238" stroke="#223451" stroke-linecap="round" stroke-linejoin="round"/>
<path d="M266.083 350.647V342.238" stroke="#223451" stroke-linecap="round" stroke-linejoin="round"/>
<path d="M283.23 350.647V342.238" stroke="#223451" stroke-linecap="round" stroke-linejoin="round"/>
<path d="M300.377 350.647V342.238" stroke="#223451" stroke-linecap="round" stroke-linejoin="round"/>
<path d="M317.542 350.647V342.238" stroke="#223451" stroke-linecap="round" stroke-linejoin="round"/>
<path d="M334.688 350.647V342.238" stroke="#223451" stroke-linecap="round" stroke-linejoin="round"/>
<path d="M351.835 350.647V342.238" stroke="#223451" stroke-linecap="round" stroke-linejoin="round"/>
<path d="M368.982 350.647V342.238" stroke="#223451" stroke-linecap="round" stroke-linejoin="round"/>
<path d="M386.147 350.647V342.238" stroke="#223451" stroke-linecap="round" stroke-linejoin="round"/>
<path d="M403.293 350.647V342.238" stroke="#223451" stroke-linecap="round" stroke-linejoin="round"/>
<path d="M420.44 350.647V342.238" stroke="#223451" stroke-linecap="round" stroke-linejoin="round"/>
<path d="M437.587 350.647V342.238" stroke="#223451" stroke-linecap="round" stroke-linejoin="round"/>
<path d="M454.094 350.647V342.238" stroke="#223451" stroke-linecap="round" stroke-linejoin="round"/>
<path d="M470.6 350.647V342.238" stroke="#223451" stroke-linecap="round" stroke-linejoin="round"/>
<path d="M487.089 350.647V342.238" stroke="#223451" stroke-linecap="round" stroke-linejoin="round"/>
<path d="M426.472 101.893L317.103 249.23L275.278 305.569L229.578 276.467L173.66 350.647H172.855C171.102 350.649 169.379 350.192 167.856 349.323C166.333 348.455 165.063 347.203 164.172 345.693L227.001 262.318L272.701 291.365L303.978 249.321L418.027 95.769L426.472 101.893Z" fill="#223451"/>
<path d="M398.723 103.757L438.921 79.3901L427.807 121.544L420.714 102.039L398.723 103.757Z" fill="#223451"/>
<path d="M779.148 567.63H136.259L64.1992 631.702" stroke="#223451" stroke-linecap="round" stroke-linejoin="round"/>
<path d="M136.661 522.772V398.193" stroke="#223451" stroke-linecap="round" stroke-linejoin="round"/>
<path d="M136.661 560.392V536.299" stroke="#223451" stroke-linecap="round" stroke-linejoin="round"/>
<path d="M741.4 262.684C740.868 270.518 739.904 278.317 738.512 286.045C734.344 307.579 723.888 321.472 719.757 340.885C715.625 360.299 727.562 385.397 724.363 410.349C721.164 435.302 711.421 449.213 714.163 465.884C716.905 482.555 731.529 527.67 731.529 527.67" stroke="#223451" stroke-width="1.17749" stroke-linecap="round" stroke-linejoin="round"/>
<path d="M739.682 282.389L751.034 273.652" stroke="#223451" stroke-width="1.17749" stroke-linecap="round" stroke-linejoin="round"/>
<path d="M740.194 272.354L735.459 263.89" stroke="#223451" stroke-width="1.17749" stroke-linecap="round" stroke-linejoin="round"/>
<path d="M720.396 340.008C720.396 340.008 729.902 332.86 739.682 325.731" stroke="#223451" stroke-width="1.17749" stroke-linecap="round" stroke-linejoin="round"/>
<path d="M725.149 325.092C725.149 325.092 717.216 309.554 708.24 299.244" stroke="#223451" stroke-width="1.17749" stroke-linecap="round" stroke-linejoin="round"/>
<path d="M725.149 404.152C730.596 394.15 737.461 384.988 745.532 376.952" stroke="#223451" stroke-width="1.17749" stroke-linecap="round" stroke-linejoin="round"/>
<path d="M723.303 414.718C720.388 407.917 716.915 401.369 712.92 395.14C707.436 386.951 706.559 385.891 706.559 385.891" stroke="#223451" stroke-width="1.17749" stroke-linecap="round" stroke-linejoin="round"/>
<path d="M714.2 465.866C716.614 459.88 719.48 454.087 722.773 448.536C726.061 443.368 729.766 438.477 733.851 433.912" stroke="#223451" stroke-width="1.17749" stroke-linecap="round" stroke-linejoin="round"/>
<path d="M724.674 504.839C724.122 499.127 725.107 493.371 727.526 488.167C731.492 480.508 735.971 470.454 737.836 466.505" stroke="#223451" stroke-width="1.17749" stroke-linecap="round" stroke-linejoin="round"/>
<path d="M670.602 364.028C671.792 368.888 673.25 373.679 674.971 378.378C679.906 391.411 687.95 398.997 692.666 410.733C697.382 422.469 692.666 439.488 697.327 454.788C701.989 470.088 709.666 477.711 709.721 488.515C709.776 499.318 705.608 529.169 705.608 529.169" stroke="#223451" stroke-width="1.17749" stroke-linecap="round" stroke-linejoin="round"/>
<path d="M673.837 376.221L665.776 371.998" stroke="#223451" stroke-width="1.17749" stroke-linecap="round" stroke-linejoin="round"/>
<path d="M672.412 369.987L674.477 364.174" stroke="#223451" stroke-width="1.17749" stroke-linecap="round" stroke-linejoin="round"/>
<path d="M692.191 410.24C692.191 410.24 685.445 406.803 678.554 403.385" stroke="#223451" stroke-width="1.17749" stroke-linecap="round" stroke-linejoin="round"/>
<path d="M687.584 401.502C689.567 395.244 692.182 389.205 695.39 383.478" stroke="#223451" stroke-width="1.17749" stroke-linecap="round" stroke-linejoin="round"/>
<path d="M696.175 451.004C691.677 445.325 686.382 440.326 680.455 436.161" stroke="#223451" stroke-width="1.17749" stroke-linecap="round" stroke-linejoin="round"/>
<path d="M698.479 457.439C699.546 452.871 700.996 448.401 702.811 444.076C705.352 438.318 705.791 437.568 705.791 437.568" stroke="#223451" stroke-width="1.17749" stroke-linecap="round" stroke-linejoin="round"/>
<path d="M709.374 496.667C711.99 493.419 714.889 490.409 718.038 487.674C720.044 486.188 721.927 484.544 723.669 482.756" stroke="#223451" stroke-width="1.17749" stroke-linecap="round" stroke-linejoin="round"/>
<path d="M709.721 488.515C707.536 485.027 705.092 481.709 702.409 478.589C699.784 475.722 696.929 473.075 693.872 470.673" stroke="#223451" stroke-width="1.17749" stroke-linecap="round" stroke-linejoin="round"/>
<path d="M707.436 514.107C707.145 510.448 705.883 506.933 703.78 503.925C700.453 499.538 696.468 493.724 694.969 491.439" stroke="#223451" stroke-width="1.17749" stroke-linecap="round" stroke-linejoin="round"/>
<path d="M742.497 580.646H694.494C693.54 580.646 692.624 580.273 691.94 579.607C691.257 578.941 690.862 578.035 690.838 577.081L683.946 523.959H752.898L746.007 577.081C745.984 578.01 745.609 578.896 744.957 579.558C744.305 580.22 743.426 580.609 742.497 580.646Z" fill="#223451"/>
<path d="M752.35 532.935H684.019C682.597 532.94 681.231 532.381 680.22 531.38C679.209 530.38 678.636 529.019 678.627 527.597C678.65 526.177 679.223 524.822 680.226 523.816C681.228 522.811 682.581 522.233 684.001 522.205H752.35C753.057 522.202 753.758 522.339 754.412 522.608C755.066 522.877 755.661 523.273 756.162 523.772C756.663 524.272 757.061 524.865 757.332 525.518C757.603 526.171 757.743 526.872 757.743 527.579C757.74 528.285 757.599 528.983 757.326 529.634C757.054 530.285 756.656 530.876 756.156 531.374C755.655 531.871 755.061 532.265 754.408 532.533C753.755 532.801 753.056 532.937 752.35 532.935Z" fill="#223451"/>
<path d="M598.304 320.467C598.302 335.469 593.216 350.028 583.878 361.77C574.54 373.511 561.499 381.743 546.883 385.123H546.682C544.945 385.507 543.208 385.854 541.417 386.11C538.274 386.558 535.104 386.784 531.93 386.787C514.579 386.724 497.943 379.871 485.584 367.694C473.224 355.517 466.124 338.985 465.804 321.637C465.484 304.29 471.969 287.507 483.87 274.882C495.772 262.257 512.144 254.794 529.48 254.092C530.083 254.092 530.723 254.092 531.308 254.092C531.503 254.074 531.698 254.074 531.893 254.092C532.118 254.074 532.344 254.074 532.569 254.092C541.525 254.15 550.372 256.048 558.564 259.667C570.379 264.844 580.431 273.351 587.488 284.149C594.546 294.946 598.305 307.567 598.304 320.467Z" fill="white"/>
<path opacity="0.4" d="M558.6 259.686C481.952 255.701 481.586 340.794 481.586 340.794C481.586 340.794 469.887 313.027 488.99 282.298C499.665 265.096 518.238 257.51 532.606 254.147C541.559 254.193 550.406 256.078 558.6 259.686Z" fill="white"/>
<path d="M598.304 320.466C598.303 335.506 593.195 350.099 583.817 361.855C574.438 373.612 561.345 381.835 546.682 385.178C541.843 386.291 536.894 386.849 531.93 386.841C514.326 387.166 497.314 380.484 484.637 368.266C471.96 356.049 464.655 339.295 464.33 321.691C464.005 304.088 470.687 287.076 482.905 274.399C495.123 261.721 511.876 254.417 529.48 254.092C530.284 254.092 531.107 254.092 531.93 254.092C549.532 254.097 566.412 261.091 578.858 273.538C591.305 285.984 598.299 302.864 598.304 320.466V320.466Z" stroke="#223451" stroke-linecap="round" stroke-linejoin="round"/>
<path d="M598.304 320.466C598.303 335.506 593.195 350.099 583.817 361.855C574.438 373.612 561.345 381.835 546.682 385.178C545.877 385.178 545.055 385.178 544.232 385.178C527.939 385.135 512.231 379.102 500.098 368.229C487.965 357.355 480.253 342.4 478.431 326.21C476.609 310.019 480.804 293.724 490.217 280.426C499.63 267.128 513.605 257.755 529.48 254.092C530.284 254.092 531.107 254.092 531.93 254.092C549.532 254.097 566.412 261.091 578.858 273.538C591.305 285.984 598.299 302.864 598.304 320.466V320.466Z" stroke="#223451" stroke-linecap="round" stroke-linejoin="round"/>
<path d="M554.798 361.944L556.516 368.963L545.036 371.76L543.318 364.759C533.045 364.759 524.8 358.087 522.168 347.375L521.382 344.194L534.05 339.606L534.854 342.914C536.445 349.422 540.741 352.548 546.097 351.232C547.272 351.049 548.394 350.613 549.385 349.954C550.376 349.296 551.212 348.43 551.836 347.417C552.46 346.404 552.857 345.267 552.999 344.086C553.141 342.905 553.025 341.707 552.659 340.575C551.124 334.323 543.958 330.411 535.659 326.371C525.842 321.618 515.715 315.586 512.937 304.234C510.231 293.156 513.631 283.925 522.387 279.355L520.669 272.335L532.131 269.539L533.849 276.54C543.812 276.394 551.233 282.956 553.957 294.29L554.524 296.593L541.874 301.181L541.234 298.64C539.552 291.749 536.006 288.842 531.29 289.994C526.574 291.146 524.618 294.747 525.989 300.34C527.524 306.592 534.781 310.358 542.989 314.562C552.696 319.48 562.933 325.347 565.711 336.681C568.508 347.594 564.048 357.319 554.798 361.944Z" stroke="#223451" stroke-miterlimit="10"/>
<path opacity="0.3" d="M554.798 361.944L556.516 368.963L545.036 371.76L543.318 364.759C533.045 364.759 524.8 358.087 522.168 347.375L521.382 344.194L534.05 339.606L534.854 342.914C536.445 349.422 540.741 352.548 546.097 351.232C547.272 351.049 548.394 350.613 549.385 349.954C550.376 349.296 551.212 348.43 551.836 347.417C552.46 346.404 552.857 345.267 552.999 344.086C553.141 342.905 553.025 341.707 552.659 340.575C551.124 334.323 543.958 330.411 535.659 326.371C525.842 321.618 515.715 315.586 512.937 304.234C510.231 293.156 513.631 283.925 522.387 279.355L520.669 272.335L532.131 269.539L533.849 276.54C543.812 276.394 551.233 282.956 553.957 294.29L554.524 296.593L541.874 301.181L541.234 298.64C539.552 291.749 536.006 288.842 531.29 289.994C526.574 291.146 524.618 294.747 525.989 300.34C527.524 306.592 534.781 310.358 542.989 314.562C552.696 319.48 562.933 325.347 565.711 336.681C568.508 347.594 564.048 357.319 554.798 361.944Z" fill="#5E779E"/>
<path d="M498.002 377.537L512.023 376.897" stroke="#223451" stroke-linecap="round" stroke-linejoin="round"/>
<path d="M491.257 372.875L503.486 371.833" stroke="#223451" stroke-linecap="round" stroke-linejoin="round"/>
<path d="M485.773 367.958L498.002 366.916" stroke="#223451" stroke-linecap="round" stroke-linejoin="round"/>
<path d="M484.091 274.438H494.565" stroke="#223451" stroke-linecap="round" stroke-linejoin="round"/>
<path d="M489.264 269.612L499.702 269.136" stroke="#223451" stroke-linecap="round" stroke-linejoin="round"/>
<path d="M495.808 264.768L506.813 263.726" stroke="#223451" stroke-linecap="round" stroke-linejoin="round"/>
<path opacity="0.3" d="M546.883 385.123H546.682C541.843 386.236 536.894 386.795 531.93 386.786C514.579 386.724 497.943 379.871 485.584 367.694C473.224 355.517 466.124 338.985 465.804 321.637C465.484 304.29 471.969 287.507 483.87 274.882C495.772 262.257 512.144 254.794 529.48 254.092C530.083 254.092 530.723 254.092 531.308 254.092C515.13 259.192 487.984 272.226 480.727 299.408C470.472 338.034 493.56 381.887 546.883 385.123Z" fill="#5E779E"/>
<path opacity="0.1" d="M598.304 320.466C598.302 335.469 593.217 350.028 583.878 361.77C574.54 373.511 561.499 381.743 546.883 385.123H546.682C544.945 385.507 543.208 385.854 541.417 386.11L558.6 259.631C570.415 264.815 580.462 273.33 587.514 284.135C594.565 294.939 598.315 307.564 598.304 320.466Z" fill="#5E779E"/>
<path d="M635.961 215.978C630.705 223.402 623.088 228.825 614.353 231.361C605.618 233.898 596.281 233.398 587.866 229.944L587.629 229.834C586.381 229.286 585.161 228.676 583.973 228.006C582.631 227.285 581.337 226.479 580.097 225.593C572 219.409 566.551 210.382 564.853 200.336C563.154 190.289 565.333 179.972 570.948 171.47C576.562 162.968 585.195 156.914 595.102 154.531C605.008 152.148 615.45 153.615 624.317 158.634L625.212 159.2C625.633 159.438 626.035 159.731 626.455 160.023C626.876 160.315 627.68 160.919 628.283 161.394C636.274 167.803 641.518 177.02 642.945 187.164C644.371 197.307 641.874 207.613 635.961 215.978Z" fill="white"/>
<path opacity="0.4" d="M575.381 216.527C575.381 216.527 568.819 197.205 577.538 182.983C588.506 165.16 605.306 157.025 628.174 161.412C628.174 161.412 615.78 153.04 595.032 158.981C574.284 164.922 563.152 193.475 575.381 216.527Z" fill="white"/>
<path d="M635.961 215.996C630.7 223.414 623.081 228.829 614.346 231.359C605.611 233.889 596.277 233.384 587.866 229.926C585.091 228.792 582.453 227.344 580.006 225.612C571.858 219.361 566.409 210.23 564.778 200.091C563.147 189.951 565.457 179.572 571.233 171.081C577.01 162.59 585.816 156.631 595.846 154.425C605.876 152.22 616.37 153.935 625.176 159.219C625.578 159.456 625.999 159.731 626.401 160.023C635.077 166.189 640.955 175.542 642.747 186.034C644.539 196.526 642.099 207.301 635.961 215.996Z" stroke="#223451" stroke-linecap="round" stroke-linejoin="round"/>
<path d="M635.961 215.996C630.7 223.414 623.081 228.829 614.346 231.359C605.611 233.889 596.277 233.384 587.866 229.926L586.642 229.121C578.7 223.365 573.136 214.904 570.996 205.332C568.857 195.759 570.29 185.735 575.025 177.145C579.76 168.555 587.471 161.992 596.708 158.691C605.944 155.389 616.068 155.577 625.176 159.219C625.578 159.456 625.999 159.731 626.401 160.023C635.077 166.189 640.955 175.542 642.747 186.034C644.539 196.526 642.099 207.301 635.961 215.996Z" stroke="#223451" stroke-linecap="round" stroke-linejoin="round"/>
<path d="M599.968 221.334L598.377 225.392L591.724 222.778L593.314 218.702C590.845 216.964 589.057 214.421 588.257 211.51C587.457 208.598 587.693 205.499 588.927 202.743L589.658 200.915L597.518 203.054L596.769 204.992C595.288 208.757 596.294 211.792 599.401 213.017C600.046 213.338 600.753 213.515 601.474 213.535C602.194 213.556 602.91 213.42 603.572 213.137C604.235 212.853 604.828 212.429 605.31 211.894C605.792 211.359 606.153 210.725 606.366 210.037C607.792 206.381 605.616 201.976 602.929 197.095C599.748 191.318 596.86 184.811 599.438 178.23C602.015 171.649 606.878 168.432 612.782 169.236L614.391 165.178L621.026 167.792L619.436 171.832C624.408 175.232 625.779 180.972 623.202 187.644L622.672 188.96L614.811 186.821L615.396 185.341C616.968 181.356 616.237 178.669 613.568 177.59C610.899 176.512 608.614 177.59 607.335 180.862C605.909 184.518 608.194 188.869 610.771 193.804C613.861 199.636 616.859 206.107 614.281 212.669C613.304 215.572 611.33 218.035 608.71 219.621C606.09 221.207 602.993 221.814 599.968 221.334V221.334Z" stroke="#223451" stroke-miterlimit="10"/>
<path opacity="0.3" d="M599.968 221.334L598.377 225.392L591.724 222.778L593.314 218.702C590.845 216.964 589.057 214.421 588.257 211.51C587.457 208.598 587.693 205.499 588.927 202.743L589.658 200.915L597.518 203.054L596.769 204.992C595.288 208.757 596.294 211.792 599.401 213.017C600.046 213.338 600.753 213.515 601.474 213.535C602.194 213.556 602.91 213.42 603.572 213.137C604.235 212.853 604.828 212.429 605.31 211.894C605.792 211.359 606.153 210.725 606.366 210.037C607.792 206.381 605.616 201.976 602.929 197.095C599.748 191.318 596.86 184.811 599.438 178.23C602.015 171.649 606.878 168.432 612.782 169.236L614.391 165.178L621.026 167.792L619.436 171.832C624.408 175.232 625.779 180.972 623.202 187.644L622.672 188.96L614.811 186.821L615.396 185.341C616.968 181.356 616.237 178.669 613.568 177.59C610.899 176.512 608.614 177.59 607.335 180.862C605.909 184.518 608.194 188.869 610.771 193.804C613.861 199.636 616.859 206.107 614.281 212.669C613.304 215.572 611.33 218.035 608.71 219.621C606.09 221.207 602.993 221.814 599.968 221.334Z" fill="#5E779E"/>
<path opacity="0.3" d="M624.225 158.652C613.257 156.696 599.365 155.618 591.87 160.48C578.105 169.309 569.532 180.442 569.66 198.484C569.788 216.527 586.642 229.176 586.642 229.176L587.629 229.889C584.94 228.766 582.384 227.35 580.006 225.667C571.908 219.482 566.46 210.455 564.762 200.409C563.063 190.362 565.241 180.046 570.856 171.543C576.471 163.041 585.104 156.987 595.01 154.604C604.917 152.221 615.358 153.688 624.225 158.707V158.652Z" fill="#5E779E"/>
<path opacity="0.1" d="M635.961 215.978C630.705 223.402 623.088 228.825 614.353 231.361C605.618 233.898 596.281 233.398 587.866 229.944L587.629 229.834C586.381 229.286 585.16 228.676 583.973 228.006L628.174 161.412C636.176 167.805 641.438 177.011 642.885 187.151C644.333 197.291 641.856 207.602 635.961 215.978Z" fill="#5E779E"/>
<path d="M493.56 450.657C491.403 448.926 489.258 447.172 487.125 445.392C467.017 428.739 449.944 409.07 426.034 397.718C391.844 381.305 353.009 377.298 316.189 386.384C267.802 398.394 207.789 416.894 186.401 467.072C173.916 496.32 178.632 529.663 180.753 560.483C188.686 674.532 250.436 777.266 366.825 805.472C430.147 820.827 498.441 816.623 555.237 782.585C577.968 768.74 598.253 751.229 615.268 730.761C653.108 685.793 682.209 625.651 647.752 570.409C626.145 535.677 591.504 516.282 557.65 495.644C535.334 482.053 513.926 467.025 493.56 450.657V450.657Z" stroke="#223451" stroke-miterlimit="10"/>
<path d="M317.249 654.022C307.559 656.955 298.155 660.76 289.153 665.392" stroke="#223451" stroke-linecap="round" stroke-linejoin="round"/>
<path d="M376.568 642.725C362.413 643.95 348.363 646.18 334.524 649.397" stroke="#223451" stroke-linecap="round" stroke-linejoin="round"/>
<path d="M364.229 639.8C364.229 639.8 309.608 608.029 243.691 633.494" stroke="#223451" stroke-linecap="round" stroke-linejoin="round"/>
<path opacity="0.1" d="M615.268 730.761C598.253 751.229 577.968 768.74 555.237 782.585C548.153 786.823 540.829 790.644 533.301 794.028C527.357 792.209 521.517 790.067 515.807 787.612C481.696 772.988 453.07 748.255 425.101 723.87C408.229 709.246 391.082 694.256 370.883 684.623C343.567 671.707 312.492 669.147 283.431 677.42C298.461 660.456 318.895 649.212 341.269 645.595C326.828 632.451 306.738 626.931 287.215 626.584C267.692 626.236 256.944 628.631 237.859 632.908C244.239 621.173 261.166 610.552 274.529 610.863C261.826 610.694 249.143 609.797 236.543 608.176C219.305 605.397 211.591 585.106 209.013 567.85C201.884 520.322 209.105 469.705 235.044 429.306C240.18 421.248 246.121 413.733 252.776 406.876C273.505 397.645 295.898 391.448 316.244 386.384C353.064 377.289 391.902 381.296 426.088 397.718C450.017 409.07 467.054 428.794 487.18 445.41C489.313 447.165 491.458 448.914 493.615 450.657C513.945 467.021 535.317 482.048 557.595 495.644C591.431 516.282 626.072 535.75 647.697 570.409C682.21 625.651 653.108 685.792 615.268 730.761Z" fill="#5E779E"/>
<path d="M634.316 729.372C644.565 737.893 655.288 745.827 666.434 753.136C688.169 754.598 678.425 780.867 678.425 780.867L659.816 792.84C659.816 792.84 627.954 767.522 610.552 759.315C593.149 751.107 634.316 729.372 634.316 729.372Z" fill="white"/>
<path opacity="0.3" d="M479.868 452.796C479.868 452.796 476.889 423.31 472.136 415.029L399.966 400.332V394.739C399.966 394.739 401.63 385.014 385.543 378.926C369.457 372.839 335.932 380.754 327.285 387.299C318.639 393.843 321.801 405.103 321.801 405.103C321.801 405.103 292.736 419.782 279.684 425.376C269 430.306 258.584 435.797 248.48 441.828C248.48 441.828 242.557 509.61 243.727 525.349C244.897 541.088 242.777 555.895 244.129 564.615C245.482 573.334 246.542 578.288 255.682 585.71C264.822 593.131 273.14 603.99 297.105 593.223L293.76 590.572L451.516 537.432L479.868 452.796Z" fill="#5E779E"/>
<path d="M479.868 452.796C479.868 452.796 476.889 423.31 472.136 415.029L399.966 400.332V394.739C399.966 394.739 401.63 385.014 385.543 378.926C369.457 372.839 335.932 380.754 327.285 387.299C318.639 393.843 321.801 405.103 321.801 405.103C321.801 405.103 292.736 419.782 279.684 425.376C269 430.306 258.584 435.797 248.48 441.828C248.48 441.828 242.557 509.61 243.727 525.349C244.897 541.088 242.777 555.895 244.129 564.615C245.482 573.334 246.542 578.288 255.682 585.71C264.822 593.131 273.14 603.99 297.105 593.223L293.76 590.572L451.516 537.432L479.868 452.796Z" fill="white"/>
<path opacity="0.05" d="M479.868 452.796C479.868 452.796 476.889 423.31 472.136 415.029L399.966 400.332V394.739C399.966 394.739 401.63 385.014 385.543 378.926C369.457 372.839 335.932 380.754 327.285 387.299C318.639 393.843 321.801 405.103 321.801 405.103C321.801 405.103 292.736 419.782 279.684 425.376C269 430.306 258.584 435.797 248.48 441.828C248.48 441.828 242.557 509.61 243.727 525.349C244.897 541.088 242.777 555.895 244.129 564.615C245.482 573.334 246.542 578.288 255.682 585.71C264.822 593.131 273.14 603.99 297.105 593.223L293.76 590.572L451.516 537.432L479.868 452.796Z" fill="#5E779E"/>
<path opacity="0.1" d="M473.086 418.612H442.888C440.048 418.617 437.302 419.628 435.137 421.465C432.971 423.302 431.527 425.847 431.06 428.648L416.181 518.22C416.181 518.22 395.689 519.92 381.174 530.504C366.66 541.088 330.959 465.574 274.547 465.537C274.547 465.537 290.78 502.645 294.381 532.259C294.381 532.259 259.119 528.42 253.269 542.222C247.42 556.023 255.92 581.889 270.836 571.872C285.753 561.854 299.792 545.146 309.754 555.712C319.717 566.278 364.229 571.963 364.229 571.963L432.724 537.432L459.285 524.947L473.086 418.612Z" fill="#5E779E"/>
<path opacity="0.4" d="M377.208 374.21C377.208 374.21 394.354 378.963 397.133 384.721C399.911 390.479 399.619 405.048 399.619 405.048C395.458 414.786 389.153 423.459 381.174 430.421L368.378 405.048L369.53 433.821C369.53 433.821 345.254 429.781 334.944 422.03L324.653 414.261C324.653 414.261 320.211 399.637 320.85 394.684C321.49 389.73 340.008 379.676 340.008 379.676L377.208 374.21Z" fill="white"/>
<path d="M662.814 817.884C662.339 816.842 669.852 803.571 663.966 790.062C658.08 776.553 648.702 781.763 648.702 781.763C648.702 781.763 621.995 764.762 610.771 759.388C602.684 755.326 594.896 750.696 587.464 745.532L575.601 761.508L586.569 795.436L662.814 817.884Z" fill="white"/>
<path d="M647.733 780.94L682.027 801.889C682.027 801.889 706.138 786.424 717.636 775.748C729.134 765.073 754.964 742.332 754.964 742.332L771.416 720.195C771.416 720.195 760.009 706.083 740.998 717.417C716.43 732.041 686.469 753.282 666.489 753.081C666.489 753.081 670.419 777.631 647.861 780.94" fill="white"/>
<path d="M371.395 285.589C371.395 285.589 386.951 309.133 389.784 316.756C392.618 324.379 394.903 335.658 394.336 341.087C393.769 346.516 388.066 375.599 385.196 376.44L382.436 379.566L384.264 391.887C384.264 391.887 372.089 412.927 336.297 397.499C336.297 397.499 334.908 372.93 330.557 365.216C326.207 357.502 319.699 366.679 313.173 344.395C306.647 322.112 327.431 298.695 327.431 298.695L371.395 285.589Z" fill="white"/>
<path opacity="0.5" d="M756.481 713.322C756.481 713.322 738.841 716.393 733.119 726.831C727.398 737.269 716.411 756.664 712.664 766.042C708.916 775.419 677.932 798.068 677.932 798.068L682.045 801.889C682.045 801.889 707.271 786.296 722.499 771.471C737.726 756.646 771.306 719.355 771.306 719.355C771.306 719.355 768.893 716.96 756.481 713.322Z" fill="white"/>
<path opacity="0.5" d="M579.969 755.641L575.601 761.508L589.018 789.331L662.814 815.855L666.233 805.051C666.233 805.051 667.366 794.083 641.463 785.748C615.561 777.412 599.767 771.91 592.4 766.188C585.033 760.467 579.969 755.641 579.969 755.641Z" fill="white"/>
<path d="M365.709 319.443C366.19 322.405 366.874 325.331 367.757 328.199C368.087 329.599 368.71 330.914 369.585 332.056C371.303 333.884 374.082 334.36 376.623 334.743C377.042 334.773 377.441 334.94 377.756 335.219C377.961 335.546 378.057 335.93 378.03 336.316C378.015 339.195 377.15 342.006 375.544 344.395" stroke="#223451" stroke-linecap="round" stroke-linejoin="round"/>
<path opacity="0.1" d="M595.124 736.684L579.969 755.567C579.969 755.567 596.604 770.941 613.824 776.644C631.044 782.347 661.188 793.096 666.233 801.377L664.295 791.524C664.295 791.524 617.151 762.605 606.329 755.695C603.13 753.597 600.455 750.791 598.512 747.495C596.569 744.198 595.41 740.5 595.124 736.684Z" fill="#5E779E"/>
<path opacity="0.1" d="M647.733 780.94L677.914 798.068C677.914 798.068 692.812 787.868 700.124 780.355C707.436 772.842 716.448 764.506 722.06 747.67C729.719 724.4 751.655 713.322 751.655 713.322C751.655 713.322 721.146 727.69 705.261 738.914C689.375 750.138 673.892 754.891 664.898 754.123C664.807 754.178 672.028 777.028 647.733 780.94Z" fill="#5E779E"/>
<path d="M355.071 348.545C355.071 348.545 366.934 357.849 379.255 354.358C379.255 354.358 367.629 377.391 355.071 348.545Z" fill="white" stroke="#223451" stroke-linecap="round" stroke-linejoin="round"/>
<path d="M354.632 328.437C354.979 330.996 354.193 333.208 352.913 333.391C351.634 333.573 350.299 331.563 349.952 329.058C349.605 326.554 350.373 324.287 351.67 324.104C352.968 323.922 354.358 325.878 354.632 328.437Z" fill="#223451"/>
<path d="M380.462 323.776C380.791 326.353 380.023 328.565 378.743 328.729C377.464 328.894 376.111 326.901 375.782 324.415C375.453 321.929 376.202 319.626 377.5 319.461C378.798 319.297 380.114 321.216 380.462 323.776Z" fill="#223451"/>
<path d="M352.804 317.578C352.804 317.578 345.894 314.014 340.977 321.655" stroke="#223451" stroke-linecap="round" stroke-linejoin="round"/>
<path d="M370.517 312.826C370.517 312.826 377.829 306.556 382.052 312.826" stroke="#223451" stroke-linecap="round" stroke-linejoin="round"/>
<path d="M329.332 341.105C329.332 341.105 324.89 334.542 320.192 334.744C315.494 334.945 313.63 341.525 315.312 347.887C316.993 354.248 323.995 363.132 329.296 362.292C332.286 361.906 335.014 360.388 336.919 358.051" stroke="#223451" stroke-linecap="round" stroke-linejoin="round"/>
<path d="M371.925 290.89C376.915 295.039 382.198 299.554 384.721 305.66C386.951 310.851 387.444 316.628 389.492 321.874C391.667 327.486 394.044 333.354 394.226 339.478C394.13 345.144 393.388 350.78 392.014 356.277C391.255 361.044 390.125 365.744 388.633 370.335C386.165 376.897 381.613 380.937 375.508 384.045C371.066 386.311 363.662 389.529 358.855 386.494C356.058 384.666 351.853 379.438 348.362 374.63" stroke="#223451" stroke-linecap="round" stroke-linejoin="round"/>
<path d="M329.333 362.292C329.333 362.292 337.193 381.559 335.292 395.104" stroke="#223451" stroke-linecap="round" stroke-linejoin="round"/>
<path d="M327.321 337.869C328.368 337.095 329.197 336.064 329.728 334.876C330.26 333.688 330.476 332.383 330.356 331.087C330.063 328.126 328.016 325.384 328.418 322.423C328.755 321.005 329.283 319.639 329.99 318.365C331.055 315.905 331.524 313.23 331.358 310.555C331.193 307.88 330.399 305.282 329.04 302.973C329.04 302.973 354.01 304.143 365.709 296.703C377.409 289.263 386.329 270.233 379.255 261.148C372.181 252.063 358.397 264.457 348.179 265.828C337.96 267.199 301.62 272.994 295.825 286.996C290.03 300.999 298.86 306.026 299.134 319.388C299.408 332.751 299.408 358.069 319.388 355.747C319.388 355.747 311.911 346.077 317.103 336.114C320.631 331.928 327.321 337.869 327.321 337.869Z" fill="#223451"/>
<path d="M376.294 276.942C379.684 279.583 382.496 282.893 384.552 286.667C386.609 290.441 387.867 294.597 388.249 298.878C389.364 308.896 407.132 328.364 394.318 339.46C394.318 339.46 391.338 327.669 389.583 321.856C387.828 316.043 385.58 305.404 382.637 301.748C379.694 298.092 364.083 285.296 364.083 285.296L376.294 276.942Z" fill="#223451"/>
<path d="M331.636 394.684C331.636 394.684 343.956 402.8 366.843 403.129L369.53 433.821C369.53 433.821 343.792 431.865 324.653 414.262C324.653 414.262 319.479 400.57 320.85 394.684C322.221 388.798 334.524 382.966 334.524 382.966" stroke="#223451" stroke-linecap="round" stroke-linejoin="round"/>
<path d="M383.405 380.956L384.136 391.924C379.311 396.949 373.394 400.796 366.843 403.166L381.175 430.458C381.175 430.458 398.266 417.15 399.966 403.166C399.966 403.166 400.113 388.852 397.133 384.758C394.153 380.663 383.295 378.744 383.295 378.744" stroke="#223451" stroke-linecap="round" stroke-linejoin="round"/>
<path opacity="0.8" d="M314.05 296.136C315.878 291.548 320.887 288.824 325.768 288.093C330.649 287.362 335.657 287.874 340.593 287.746C347.427 287.691 354.12 285.796 359.97 282.262C362.876 280.492 365.405 278.167 367.412 275.419C369.42 272.671 370.866 269.555 371.669 266.248" stroke="white" stroke-linecap="round" stroke-linejoin="round"/>
<path opacity="0.8" d="M302.26 295.24C305.349 285.863 315.367 280.068 325.219 279.245C330.1 278.825 335.036 279.392 339.843 278.825C344.651 278.258 349.769 276.247 352.31 272.061" stroke="white" stroke-linecap="round" stroke-linejoin="round"/>
<path d="M297.068 593.223C273.304 605.543 264.859 592.857 251.624 582.364C238.389 571.872 247.072 553.116 244.312 523.046C241.552 492.975 248.425 441.828 248.425 441.828C248.425 441.828 254.348 440.475 270.782 430.421C287.215 420.367 321.801 405.048 321.801 405.048" stroke="#223451" stroke-linecap="round" stroke-linejoin="round"/>
<path d="M320.613 547.705C320.613 547.705 316.847 535.768 306.208 535.458C295.569 535.147 278.788 539.936 266.833 562.549" stroke="#223451" stroke-linecap="round" stroke-linejoin="round"/>
<path d="M303.777 534.745C303.116 534.702 302.467 534.547 301.857 534.288C293.087 531.132 283.568 530.699 274.547 533.045" stroke="#223451" stroke-linecap="round" stroke-linejoin="round"/>
<path d="M268.423 458.152C287.782 479.539 297.214 507.837 306.153 535.257" stroke="#223451" stroke-linecap="round" stroke-linejoin="round"/>
<path d="M399.966 400.332C399.966 400.332 435.064 408.704 452.211 410.697C469.357 412.689 472.136 415.084 472.136 415.084L475.335 427.039" stroke="#223451" stroke-linecap="round" stroke-linejoin="round"/>
<path d="M563.518 421.135L443.985 425.723L434.223 548.656H454.697L558.491 525.422L571.543 424.078L563.518 421.135Z" fill="white"/>
<path d="M440.438 552.294L571.177 426.984L558.49 525.422L440.438 552.294Z" fill="white"/>
<path opacity="0.7" d="M440.438 552.294L571.177 426.984L558.49 525.422L440.438 552.294Z" fill="white"/>
<path d="M440.438 549.003L450.894 430.421L571.542 424.078L558.49 525.422L440.438 549.003Z" stroke="#223451" stroke-linecap="round" stroke-linejoin="round"/>
<path d="M520.687 481.532C519.883 488.752 516.026 494.236 512.077 493.798C508.129 493.359 505.606 487.125 506.411 479.905C507.215 472.684 511.09 467.2 515.039 467.639C518.987 468.078 521.51 474.311 520.687 481.532Z" fill="#223451"/>
<path d="M558.49 525.422C558.49 525.422 613.733 523.85 631.007 535.257C648.282 546.663 658.427 603.862 656.033 634.243C653.638 664.624 632.799 734.344 632.799 734.344L592.875 689.156C592.875 689.156 573.206 617.645 583.936 589.64C583.936 589.64 530.924 592.619 510.048 586.075C510.048 586.075 491.348 555.456 459.285 545.329L558.49 525.422Z" fill="#223451"/>
<path d="M641.226 735.532C627.046 722.295 614.312 707.588 603.24 691.66C583.918 661.809 557.211 633.164 529.736 610.808C507.599 592.857 502.59 563.609 475.28 548.93C430.037 524.673 390.918 572.877 376.294 582.639C361.67 592.4 336.352 603.459 336.352 603.459C336.352 603.459 345.601 638.191 372.766 642.304C399.93 646.417 427.404 627.68 440.402 636.729C453.399 645.778 463.014 686.176 505.935 709.849C541.015 729.189 588.817 748.054 613.477 760.777C618.961 763.629 623.055 766.627 626.163 768.327C634.681 772.97 643.785 778.436 652.376 783.846L681.972 801.871C681.972 801.871 711.677 784.303 723.083 768.107C724.601 765.932 727.763 760.137 730.724 754.544C737.177 742.314 745.349 731.346 756.664 725.296C764.488 721.073 771.452 719.812 771.288 719.373C770.538 717.984 756.353 710.726 746.719 714.693C726.319 723.12 685.536 755.494 666.287 753.081C657.334 748.138 648.933 742.255 641.226 735.532V735.532Z" stroke="#223451" stroke-miterlimit="10"/>
<path d="M641.226 735.532C623.439 742.716 616.273 753.812 613.531 760.795C588.872 747.999 541.07 729.207 505.99 709.867C463.069 686.103 453.527 645.777 440.456 636.747C427.386 627.717 399.893 646.509 372.82 642.323C345.748 638.136 336.352 603.441 336.352 603.441C336.352 603.441 361.688 592.473 376.312 582.711C390.936 572.95 424.662 524.727 475.28 549.003C503.23 562.402 507.599 592.875 529.736 610.881C557.156 633.164 583.918 661.882 603.24 691.733C614.285 707.66 627.021 722.345 641.226 735.532Z" fill="#223451"/>
<path d="M507.563 580.555C507.563 580.555 493.871 552.732 471.917 547.34" stroke="white" stroke-linecap="round" stroke-linejoin="round"/>
<path d="M435.795 525.166C420.696 521.876 404.116 538.566 397.133 535.44C391.941 533.118 383.405 546.865 383.405 546.865C369.353 548.894 355.143 549.609 340.958 549.003C320.613 547.705 310.979 551.672 303.777 562.549L293.723 589.183C293.723 589.183 320.247 612.947 348.563 599.109C376.879 585.271 414.499 543.519 440.42 543.666" stroke="#223451" stroke-linecap="round" stroke-linejoin="round"/>
<path d="M646.582 780.227C646.582 780.227 671.369 782.256 665.556 752.643" stroke="#223451" stroke-miterlimit="10"/>
<path d="M763.391 734.344C761.563 738 738.841 757.34 719.263 774.249C719.263 773.993 724.747 763.665 727.014 759.26C732.224 749.535 745.678 722.864 771.288 719.354C774.926 721.548 763.391 734.344 763.391 734.344Z" fill="#223451"/>
<path d="M753.648 713.523C727.745 718.678 721.859 751.911 712.664 766.042C703.469 780.172 677.932 799.385 677.932 799.385" stroke="#223451" stroke-miterlimit="10"/>
<path d="M663.966 790.902C668.189 798.617 666.196 807.574 663.966 813.186C662.874 815.973 661.515 818.648 659.908 821.174C623.238 815.142 586.569 795.436 586.569 795.436L577.118 766.188L575.601 761.508L589.841 742.333" stroke="#223451" stroke-miterlimit="10"/>
<path d="M663.966 813.186C662.873 815.973 661.514 818.648 659.908 821.174C623.238 815.142 586.568 795.436 586.568 795.436L577.118 766.188C581.852 772.367 590.627 781.415 603.788 785.126C621.648 790.19 654.607 796.112 663.966 813.186Z" fill="#223451"/>
<path d="M434.223 544.378L443.985 425.723L563.518 421.135L571.543 424.078" stroke="#223451" stroke-linecap="round" stroke-linejoin="round"/>
<path d="M665.392 766.042C665.392 766.042 681.734 768.966 694.293 758.73C706.851 748.493 727.087 725.332 727.087 725.332" stroke="#223451" stroke-miterlimit="10"/>
<path d="M682.027 751.308C682.027 751.308 678.078 757.249 682.027 769.168" stroke="#223451" stroke-linecap="round" stroke-linejoin="round"/>
<path d="M693.616 745.623C691.819 751.548 692.349 757.935 695.097 763.483" stroke="#223451" stroke-linecap="round" stroke-linejoin="round"/>
<path d="M707.436 737.616C707.436 737.616 704.127 747.542 707.436 756.298" stroke="#223451" stroke-linecap="round" stroke-linejoin="round"/>
<path d="M593.076 739.865L579.969 755.64C579.969 755.64 593.168 770.063 611.795 776.059C630.422 782.055 663.692 792.237 666.452 803.077" stroke="#223451" stroke-miterlimit="10"/>
</g>
</svg>
