<svg width="72" height="72" viewBox="0 0 72 72" fill="none" xmlns="http://www.w3.org/2000/svg">
<g clip-path="url(#clip0_319_442)">
<path d="M36 0C16.1196 0 0 16.1196 0 36C0 55.8804 16.1196 72 36 72C55.8804 72 72 55.8804 72 36C72 16.1196 55.8804 0 36 0ZM51.5491 24.2438L34.6259 47.708C34.3894 48.0382 34.0775 48.3072 33.7163 48.4927C33.3551 48.6783 32.9548 48.7751 32.5487 48.7751C32.1425 48.7751 31.7423 48.6783 31.381 48.4927C31.0198 48.3072 30.708 48.0382 30.4714 47.708L20.4509 33.8223C20.1455 33.3964 20.4509 32.8018 20.9732 32.8018H24.742C25.5616 32.8018 26.3411 33.1955 26.8232 33.8705L32.5446 41.8098L45.1768 24.292C45.6589 23.625 46.4304 23.2232 47.258 23.2232H51.0268C51.5491 23.2232 51.8545 23.8179 51.5491 24.2438Z" fill="#FFBB31"/>
</g>
<defs>
<clipPath id="clip0_319_442">
<rect width="72" height="72" fill="white"/>
</clipPath>
</defs>
</svg>
