<svg width="28" height="28" viewBox="0 0 28 28" fill="none" xmlns="http://www.w3.org/2000/svg">
<path d="M7.46659 10.7333H7.69992C8.59825 10.7333 9.33325 11.4683 9.33325 12.3667V20.5333C9.33325 21.4317 8.59825 22.1667 7.69992 22.1667H7.46659C6.56825 22.1667 5.83325 21.4317 5.83325 20.5333V12.3667C5.83325 11.4683 6.56825 10.7333 7.46659 10.7333ZM13.9999 5.83333C14.8983 5.83333 15.6333 6.56833 15.6333 7.46666V20.5333C15.6333 21.4317 14.8983 22.1667 13.9999 22.1667C13.1016 22.1667 12.3666 21.4317 12.3666 20.5333V7.46666C12.3666 6.56833 13.1016 5.83333 13.9999 5.83333ZM20.5333 15.1667C21.4316 15.1667 22.1666 15.9017 22.1666 16.8V20.5333C22.1666 21.4317 21.4316 22.1667 20.5333 22.1667C19.6349 22.1667 18.8999 21.4317 18.8999 20.5333V16.8C18.8999 15.9017 19.6349 15.1667 20.5333 15.1667Z" fill="white"/>
</svg>
